# xmcd
#
# Track frame offsets:
#	150
#	27763
#	51298
#	78251
#	102239
#	136703
#	140110
#
# Disc length: 2474 seconds
#
# Revision: 4
# Processed by: cddbd v1.5.2PL0 Copyright (c) Steve Scherf et al.
# Submitted via: EasyCDDAExtractor 9.0.0.1
#
DISCID=5609a807
DTITLE=Black Sabbath - Asbury Park Convention Hall Asbury Park NJ 05-08-75 Dis
DTITLE=c 1
DYEAR=1975
DGENRE=Hard Rock
TTITLE0=Supertzar > Killing Yourself To Live
TTITLE1=Hole In The Sky
TTITLE2=Snowblind
TTITLE3=Symptom Of The Universe
TTITLE4=War Pigs
TTITLE5='Tuning'
TTITLE6=Megalomania
EXTD=Recorded live at Convention Hall - Asbury Park, NJ on August 06, 1975.\n\n
EXTD=Soundboard recording.
EXTT0=
EXTT1=
EXTT2=
EXTT3=
EXTT4=
EXTT5=
EXTT6=
PLAYORDER=
